<?xml version="1.0" encoding="utf-8"?>
<!-- Generator: Adobe Illustrator 22.1.0, SVG Export Plug-In . SVG Version: 6.00 Build 0)  -->
<svg version="1.1" id="Layer_1" xmlns="http://www.w3.org/2000/svg" xmlns:xlink="http://www.w3.org/1999/xlink" x="0px" y="0px"
	 viewBox="0 0 1440 217" style="enable-background:new 0 0 1440 217;" xml:space="preserve">
<style type="text/css">
	.st0{fill:#90D26D;}
	.st1{opacity:0.5;fill:#DEFBC2;enable-background:new    ;}
</style>
<g transform="translate(-285 -41)">
	<g>
		<path id="a_1_" class="st0" d="M261.7,286.7c421.5,0,1489,176.1,1489,39.2s478.8-248,57.3-248c-198.7,0-468.6,3.6-720-11.2
			C806.3,50.1,541.9,27.2,345,52.4C-27.7,100.1-159.8,286.7,261.7,286.7L261.7,286.7z"/>
	</g>
	<path class="st1" d="M445.7,387.7c421.5,0,972.7,179.8,972.7,42.9s579.9-255.2,158.5-255.2s-707-147-707-10.2
		C869.9,302.1,24.2,387.7,445.7,387.7L445.7,387.7z"/>
</g>
</svg>
